# xmcd CD database file
#
# Track frame offsets:
#	150
#	16758
#	29462
#	46722
#	58156
#	70055
#	84201
#	96376
#	110996
#	124065
#	137456
#	153911
#	167775
#	184158
#	197387
#	212040
#	221683
#	234940
#
# Disc length: 3359 seconds
#
# Revision: 0
# Processed by: cddbd v1.5.2PL0 Copyright (c) Steve Scherf et al.
# Submitted via: CDex 1.70beta2
#
DISCID=f10d1d12
DTITLE=Time Life Superstars Of Country Good Ol' Songs - Disc 1 - Time Life Superstars Of Country Good Ol' Songs - Disc 1
DYEAR=1900
DGENRE=Country
TTITLE0=Any Day Now
TTITLE1=Rose Garden
TTITLE2=For the Good Times
TTITLE3=On the Road Again
TTITLE4=Take This Job and Shove It
TTITLE5=The Grand Tour
TTITLE6=Stand By Your Man
TTITLE7=Seven Year Ache
TTITLE8=Delta Dawn
TTITLE9=Behind Closed Doors
TTITLE10=The Devil Went Down to Georgia
TTITLE11=Baby Don't Get Hooked on Me
TTITLE12=Stand By Me
TTITLE13=Talking in Your Sleep
TTITLE14=Harper Valley P.T.A.
TTITLE15=Theme from The Dukes of Hazzard (Good Ol' Boys)
TTITLE16=I Will Always Love You
TTITLE17=A Boy Named Sue(Live)
EXTD=
EXTT0=
EXTT1=
EXTT2=
EXTT3=
EXTT4=
EXTT5=
EXTT6=
EXTT7=
EXTT8=
EXTT9=
EXTT10=
EXTT11=
EXTT12=
EXTT13=
EXTT14=
EXTT15=
EXTT16=
EXTT17=
PLAYORDER=
